<svg xmlns="http://www.w3.org/2000/svg" viewBox="0 0 1120 420" role="img" aria-labelledby="title desc">
  <!-- Generated by scripts/generate-brand-vectors.mjs; do not edit by hand. -->
  <title id="title">KeepIndex primary lockup</title>
  <desc id="desc">keepindex. Search your world. Keep it yours. keepindex.ing.</desc>
  <rect width="1120" height="420" rx="32" fill="#071117"/>
  <g transform="translate(72 58) scale(1.25)">
  <g fill="none" stroke="#F2EFE6" stroke-width="6" stroke-linecap="round" stroke-linejoin="round">
    <path d="M13 11h10v18h7"/><path d="M13 53h10V35h7"/><path d="M52 11h-5L33 28"/><path d="M53 32H36"/>
  </g>
  <path d="M32 35l15 18h6" fill="none" stroke="#62D66B" stroke-width="6" stroke-linecap="round" stroke-linejoin="round"/>
  <path d="M29 29h6v6h-6z" fill="#071117"/><path d="M30 32h4" fill="none" stroke="#F2EFE6" stroke-width="4" stroke-linecap="round"/></g>
  <g fill="#F2EFE6" transform="translate(172 126) scale(0.074 -0.074)"><path d="M62 0L62 721L220 721L220 323Q249 344 274.5 368Q300 392 321.5 418Q343 444 360.5 471.5Q378 499 391 528L575 528Q562 489 539 450.5Q516 412 483 379.5Q450 347 404.5 324Q359 301 302 293L302 275Q374 289 420.5 275.5Q467 262 495 232Q523 202 538 162Q553 122 563 83L584 0L409 0L399 50Q389 99 375.5 134Q362 169 337 188.5Q312 208 265 208L220 208L220 0Z" transform="translate(0 0)"/><path d="M313 -14Q247 -14 195 3.5Q143 21 106.5 55Q70 89 51 139Q32 189 32 254Q32 317 50.5 370Q69 423 103.5 461.5Q138 500 188.5 521Q239 542 302 542Q366 542 414.5 521.5Q463 501 494.5 461Q526 421 541 363.5Q556 306 551 232L138 229L138 313L459 316L402 277Q409 327 396 358.5Q383 390 358 404.5Q333 419 304 419Q269 419 242.5 400Q216 381 201 345Q186 309 186 257Q186 175 221.5 138Q257 101 312 101Q339 101 357 108.5Q375 116 386.5 127.5Q398 139 404.5 153Q411 167 415 180L555 150Q547 113 529.5 83Q512 53 482.5 31Q453 9 411.5 -2.5Q370 -14 313 -14Z" transform="translate(524.202703 0)"/><path d="M313 -14Q247 -14 195 3.5Q143 21 106.5 55Q70 89 51 139Q32 189 32 254Q32 317 50.5 370Q69 423 103.5 461.5Q138 500 188.5 521Q239 542 302 542Q366 542 414.5 521.5Q463 501 494.5 461Q526 421 541 363.5Q556 306 551 232L138 229L138 313L459 316L402 277Q409 327 396 358.5Q383 390 358 404.5Q333 419 304 419Q269 419 242.5 400Q216 381 201 345Q186 309 186 257Q186 175 221.5 138Q257 101 312 101Q339 101 357 108.5Q375 116 386.5 127.5Q398 139 404.5 153Q411 167 415 180L555 150Q547 113 529.5 83Q512 53 482.5 31Q453 9 411.5 -2.5Q370 -14 313 -14Z" transform="translate(1059.905405 0)"/><path d="M62 -169L62 258L62 528L194 528L196 378L214 376Q223 432 246 469Q269 506 305.5 524Q342 542 389 542Q459 542 509.5 508Q560 474 587 411Q614 348 614 260Q614 182 590.5 120Q567 58 519.5 22Q472 -14 399 -14Q350 -14 316 3.5Q282 21 258.5 55Q235 89 219 140L200 140Q206 113 211 85Q216 57 219.5 31Q223 5 223 -19L223 -169ZM340 113Q373 113 396.5 131Q420 149 433 182Q446 215 446 259Q446 306 432.5 339.5Q419 373 394 391.5Q369 410 336 410Q305 410 283.5 396.5Q262 383 248.5 361.5Q235 340 229 316Q223 292 223 271L223 249Q223 230 228 211Q233 192 243 174.5Q253 157 267 143Q281 129 299.5 121Q318 113 340 113Z" transform="translate(1591.108108 0)"/><path d="M62 0L62 528L223 528L223 0ZM143 602Q97 602 72.5 621.5Q48 641 48 677Q48 715 72.5 734.5Q97 754 143 754Q190 754 214.5 734.5Q239 715 239 678Q239 641 214.5 621.5Q190 602 143 602Z" transform="translate(2176.560811 0)"/><path d="M62 0L62 318L62 528L192 528L194 373L214 373Q227 429 251 467Q275 505 312 523.5Q349 542 399 542Q492 542 540.5 477Q589 412 589 270L589 0L427 0L427 252Q427 334 403.5 371.5Q380 409 334 409Q296 409 271.5 386Q247 363 235 325Q223 287 223 240L223 0Z" transform="translate(2402.013514 0)"/><path d="M255 -14Q189 -14 139.5 19.5Q90 53 62 115.5Q34 178 34 265Q34 345 58 407Q82 469 129.5 504.5Q177 540 247 540Q297 540 331.5 522Q366 504 389 468Q412 432 426 377L451 377Q444 411 438 441.5Q432 472 428.5 498.5Q425 525 425 545L425 720L587 720L587 258L587 0L455 0L453 156L431 156Q420 96 396.5 58.5Q373 21 337.5 3.5Q302 -14 255 -14ZM313 116Q344 116 365.5 129.5Q387 143 400 164Q413 185 419 209Q425 233 425 254L425 275Q425 294 420 313Q415 332 405.5 350Q396 368 382 382Q368 396 349.5 404Q331 412 309 412Q276 412 252.5 394Q229 376 216.5 343Q204 310 204 265Q204 220 217 186.5Q230 153 255 134.5Q280 116 313 116Z" transform="translate(2980.716216 0)"/><path d="M313 -14Q247 -14 195 3.5Q143 21 106.5 55Q70 89 51 139Q32 189 32 254Q32 317 50.5 370Q69 423 103.5 461.5Q138 500 188.5 521Q239 542 302 542Q366 542 414.5 521.5Q463 501 494.5 461Q526 421 541 363.5Q556 306 551 232L138 229L138 313L459 316L402 277Q409 327 396 358.5Q383 390 358 404.5Q333 419 304 419Q269 419 242.5 400Q216 381 201 345Q186 309 186 257Q186 175 221.5 138Q257 101 312 101Q339 101 357 108.5Q375 116 386.5 127.5Q398 139 404.5 153Q411 167 415 180L555 150Q547 113 529.5 83Q512 53 482.5 31Q453 9 411.5 -2.5Q370 -14 313 -14Z" transform="translate(3566.418919 0)"/><path d="M11 0L185 264L12 528L197 528L284 334L303 334L390 528L575 528L401 264L576 0L392 0L303 196L284 196L197 0Z" transform="translate(4083.121622 0)"/></g><g fill="#F2EFE6" transform="translate(72 263) scale(0.064 -0.064)"><path d="M331 -14Q267 -14 215 -2Q163 10 125 34.5Q87 59 65 97Q43 135 39 185L180 232Q183 190 204 162Q225 134 260.5 120.5Q296 107 340 107Q382 107 410.5 117.5Q439 128 453.5 144.5Q468 161 468 180Q468 202 449 216.5Q430 231 397 241.5Q364 252 320 262Q270 274 222 288Q174 302 135 324.5Q96 347 73.5 382.5Q51 418 51 472Q51 533 82 578Q113 623 173 648.5Q233 674 321 674Q408 674 469 649Q530 624 563 579.5Q596 535 599 476L455 435Q455 464 445.5 486Q436 508 419 522.5Q402 537 377 544.5Q352 552 320 552Q282 552 255.5 543Q229 534 216 519.5Q203 505 203 486Q203 462 223.5 446.5Q244 431 279.5 420.5Q315 410 358 400Q401 391 447 377.5Q493 364 533 342Q573 320 597.5 282.5Q622 245 622 188Q622 127 589.5 81.5Q557 36 492 11Q427 -14 331 -14Z" transform="translate(0 0)"/><path d="M313 -14Q247 -14 195 3.5Q143 21 106.5 55Q70 89 51 139Q32 189 32 254Q32 317 50.5 370Q69 423 103.5 461.5Q138 500 188.5 521Q239 542 302 542Q366 542 414.5 521.5Q463 501 494.5 461Q526 421 541 363.5Q556 306 551 232L138 229L138 313L459 316L402 277Q409 327 396 358.5Q383 390 358 404.5Q333 419 304 419Q269 419 242.5 400Q216 381 201 345Q186 309 186 257Q186 175 221.5 138Q257 101 312 101Q339 101 357 108.5Q375 116 386.5 127.5Q398 139 404.5 153Q411 167 415 180L555 150Q547 113 529.5 83Q512 53 482.5 31Q453 9 411.5 -2.5Q370 -14 313 -14Z" transform="translate(608.25 0)"/><path d="M186 -14Q142 -14 108 3.5Q74 21 55 54.5Q36 88 36 136Q36 181 53.5 210.5Q71 240 104.5 257.5Q138 275 185 286.5Q232 298 292 307Q321 312 340.5 316.5Q360 321 370 331Q380 341 380 360Q380 385 362 403Q344 421 304 421Q276 421 253.5 411Q231 401 215 382Q199 363 191 336L49 378Q62 420 85.5 451Q109 482 142 502.5Q175 523 217.5 532.5Q260 542 308 542Q388 542 438.5 516.5Q489 491 513.5 437.5Q538 384 538 300L538 219Q538 183 539.5 146.5Q541 110 543.5 73.5Q546 37 550 0L408 0Q404 23 400 55.5Q396 88 394 122L375 122Q361 84 334.5 52.5Q308 21 270.5 3.5Q233 -14 186 -14ZM259 100Q277 100 295.5 106.5Q314 113 331 124.5Q348 136 362 153Q376 170 383 190L381 269L403 264Q384 252 361 245Q338 238 314.5 234Q291 230 268.5 225.5Q246 221 228.5 214Q211 207 201 195Q191 183 191 162Q191 134 210 117Q229 100 259 100Z" transform="translate(1147.6 0)"/><path d="M62 0L62 245L62 528L194 528L197 349L217 349Q224 419 243.5 460.5Q263 502 299.5 521Q336 540 390 540Q398 540 408 539.5Q418 539 431 537L425 365Q409 373 390.5 375.5Q372 378 358 378Q319 378 290.5 363Q262 348 245.5 317Q229 286 224 239L224 0Z" transform="translate(1685.5 0)"/><path d="M311 -14Q243 -14 191 5Q139 24 104 59.5Q69 95 50.5 145Q32 195 32 257Q32 321 50.5 373Q69 425 104 463Q139 501 190 521.5Q241 542 307 542Q373 542 421 521Q469 500 499.5 462Q530 424 541 374L392 324Q389 357 376 378Q363 399 342.5 408.5Q322 418 298 418Q273 418 254 408Q235 398 222 378Q209 358 202 329.5Q195 301 195 264Q195 211 208.5 175.5Q222 140 248.5 122Q275 104 313 104Q352 104 374 120Q396 136 406 159.5Q416 183 418 206L558 175Q554 138 538.5 103.5Q523 69 493 42.5Q463 16 418.5 1Q374 -14 311 -14Z" transform="translate(2069.5 0)"/><path d="M62 0L62 336L62 720L223 720L223 555Q223 535 221.5 513.5Q220 492 216.5 469.5Q213 447 209.5 424Q206 401 201 379L225 379Q239 428 260 464.5Q281 501 315 521.5Q349 542 402 542Q496 542 542.5 476.5Q589 411 589 275L589 0L427 0L427 248Q427 329 403.5 369.5Q380 410 332 410Q295 410 271 387Q247 364 235 325.5Q223 287 223 240L223 0Z" transform="translate(2591.45 0)"/><path d="M265 -184Q225 -184 183 -177Q141 -170 103.5 -156.5Q66 -143 39 -121L78 22Q113 -11 162.5 -27Q212 -43 258 -43Q311 -43 345.5 -22.5Q380 -2 398.5 40.5Q417 83 420 146L425 233L401 233Q392 168 369.5 127Q347 86 312.5 66.5Q278 47 231 47Q173 47 134 76Q95 105 75.5 163.5Q56 222 56 309L56 528L218 528L218 349Q218 257 236.5 217.5Q255 178 295 178Q316 178 333 190Q350 202 362 224Q374 246 380.5 277.5Q387 309 387 348L387 528L548 528L548 140Q548 77 536.5 25Q525 -27 502.5 -66Q480 -105 446 -131.5Q412 -158 367 -171Q322 -184 265 -184Z" transform="translate(3373.7 0)"/><path d="M305 -14Q225 -14 163.5 17Q102 48 67 110Q32 172 32 265Q32 358 67 419.5Q102 481 164 511.5Q226 542 306 542Q386 542 448 511Q510 480 545 418.5Q580 357 580 264Q580 169 544 107Q508 45 445.5 15.5Q383 -14 305 -14ZM310 103Q346 103 370 119.5Q394 136 406 170Q418 204 418 254Q418 307 405 343.5Q392 380 366.5 399.5Q341 419 301 419Q267 419 242.5 402.5Q218 386 206 352Q194 318 194 267Q194 185 224.5 144Q255 103 310 103Z" transform="translate(3931.95 0)"/><path d="M243 -14Q149 -14 101.5 49.5Q54 113 54 243L54 528L216 528L216 264Q216 190 238 153.5Q260 117 305 117Q332 117 351.5 130.5Q371 144 384.5 168.5Q398 193 404.5 225Q411 257 411 295L411 528L572 528L572 214L572 0L444 0L441 163L421 163Q406 101 383.5 61.5Q361 22 327 4Q293 -14 243 -14Z" transform="translate(4500.85 0)"/><path d="M62 0L62 245L62 528L194 528L197 349L217 349Q224 419 243.5 460.5Q263 502 299.5 521Q336 540 390 540Q398 540 408 539.5Q418 539 431 537L425 365Q409 373 390.5 375.5Q372 378 358 378Q319 378 290.5 363Q262 348 245.5 317Q229 286 224 239L224 0Z" transform="translate(5072.5 0)"/><path d="M140 0L12 528L180 528L245 126L265 126L346 528L537 528L621 126L642 126L704 528L869 528L741 0L519 0L446 398L427 398L359 0Z" transform="translate(5658.1 0)"/><path d="M305 -14Q225 -14 163.5 17Q102 48 67 110Q32 172 32 265Q32 358 67 419.5Q102 481 164 511.5Q226 542 306 542Q386 542 448 511Q510 480 545 418.5Q580 357 580 264Q580 169 544 107Q508 45 445.5 15.5Q383 -14 305 -14ZM310 103Q346 103 370 119.5Q394 136 406 170Q418 204 418 254Q418 307 405 343.5Q392 380 366.5 399.5Q341 419 301 419Q267 419 242.5 402.5Q218 386 206 352Q194 318 194 267Q194 185 224.5 144Q255 103 310 103Z" transform="translate(6460.75 0)"/><path d="M62 0L62 245L62 528L194 528L197 349L217 349Q224 419 243.5 460.5Q263 502 299.5 521Q336 540 390 540Q398 540 408 539.5Q418 539 431 537L425 365Q409 373 390.5 375.5Q372 378 358 378Q319 378 290.5 363Q262 348 245.5 317Q229 286 224 239L224 0Z" transform="translate(7029.65 0)"/><path d="M62 0L62 720L220 720L220 0Z" transform="translate(7413.65 0)"/><path d="M255 -14Q189 -14 139.5 19.5Q90 53 62 115.5Q34 178 34 265Q34 345 58 407Q82 469 129.5 504.5Q177 540 247 540Q297 540 331.5 522Q366 504 389 468Q412 432 426 377L451 377Q444 411 438 441.5Q432 472 428.5 498.5Q425 525 425 545L425 720L587 720L587 258L587 0L455 0L453 156L431 156Q420 96 396.5 58.5Q373 21 337.5 3.5Q302 -14 255 -14ZM313 116Q344 116 365.5 129.5Q387 143 400 164Q413 185 419 209Q425 233 425 254L425 275Q425 294 420 313Q415 332 405.5 350Q396 368 382 382Q368 396 349.5 404Q331 412 309 412Q276 412 252.5 394Q229 376 216.5 343Q204 310 204 265Q204 220 217 186.5Q230 153 255 134.5Q280 116 313 116Z" transform="translate(7640.95 0)"/><path d="M125 -13Q73 -13 47.5 9Q22 31 22 77Q22 124 47.5 146Q73 168 125 168Q178 168 204 146Q230 124 230 77Q230 -13 125 -13Z" transform="translate(8230.05 0)"/></g><g fill="#62D66B" transform="translate(72 336) scale(0.064 -0.064)"><path d="M69 0L69 660L230 660L230 371Q279 393 321 426Q363 459 395.5 498Q428 537 449.5 578.5Q471 620 481 660L667 660Q655 614 628 566.5Q601 519 563 475.5Q525 432 481.5 398Q438 364 393 344L393 329Q439 329 474.5 319Q510 309 537.5 288Q565 267 585.5 235.5Q606 204 621 160L678 0L495 0L458 131Q446 175 426 200.5Q406 226 373 237.5Q340 249 288 249L230 249L230 0Z" transform="translate(0 0)"/><path d="M313 -14Q247 -14 195 3.5Q143 21 106.5 55Q70 89 51 139Q32 189 32 254Q32 317 50.5 370Q69 423 103.5 461.5Q138 500 188.5 521Q239 542 302 542Q366 542 414.5 521.5Q463 501 494.5 461Q526 421 541 363.5Q556 306 551 232L138 229L138 313L459 316L402 277Q409 327 396 358.5Q383 390 358 404.5Q333 419 304 419Q269 419 242.5 400Q216 381 201 345Q186 309 186 257Q186 175 221.5 138Q257 101 312 101Q339 101 357 108.5Q375 116 386.5 127.5Q398 139 404.5 153Q411 167 415 180L555 150Q547 113 529.5 83Q512 53 482.5 31Q453 9 411.5 -2.5Q370 -14 313 -14Z" transform="translate(617.75 0)"/><path d="M313 -14Q247 -14 195 3.5Q143 21 106.5 55Q70 89 51 139Q32 189 32 254Q32 317 50.5 370Q69 423 103.5 461.5Q138 500 188.5 521Q239 542 302 542Q366 542 414.5 521.5Q463 501 494.5 461Q526 421 541 363.5Q556 306 551 232L138 229L138 313L459 316L402 277Q409 327 396 358.5Q383 390 358 404.5Q333 419 304 419Q269 419 242.5 400Q216 381 201 345Q186 309 186 257Q186 175 221.5 138Q257 101 312 101Q339 101 357 108.5Q375 116 386.5 127.5Q398 139 404.5 153Q411 167 415 180L555 150Q547 113 529.5 83Q512 53 482.5 31Q453 9 411.5 -2.5Q370 -14 313 -14Z" transform="translate(1159.25 0)"/><path d="M62 -169L62 258L62 528L194 528L196 378L214 376Q223 432 246 469Q269 506 305.5 524Q342 542 389 542Q459 542 509.5 508Q560 474 587 411Q614 348 614 260Q614 182 590.5 120Q567 58 519.5 22Q472 -14 399 -14Q350 -14 316 3.5Q282 21 258.5 55Q235 89 219 140L200 140Q206 113 211 85Q216 57 219.5 31Q223 5 223 -19L223 -169ZM340 113Q373 113 396.5 131Q420 149 433 182Q446 215 446 259Q446 306 432.5 339.5Q419 373 394 391.5Q369 410 336 410Q305 410 283.5 396.5Q262 383 248.5 361.5Q235 340 229 316Q223 292 223 271L223 249Q223 230 228 211Q233 192 243 174.5Q253 157 267 143Q281 129 299.5 121Q318 113 340 113Z" transform="translate(1696.85 0)"/><path d="M62 0L62 528L223 528L223 0ZM143 602Q97 602 72.5 621.5Q48 641 48 677Q48 715 72.5 734.5Q97 754 143 754Q190 754 214.5 734.5Q239 715 239 678Q239 641 214.5 621.5Q190 602 143 602Z" transform="translate(2487.6 0)"/><path d="M268 -13Q175 -13 131 36.5Q87 86 87 195L87 402L12 402L15 527L69 527Q101 528 117.5 537Q134 546 138 571L151 645L242 645L242 528L369 528L369 397L242 397L242 202Q242 168 258.5 152Q275 136 309 136Q328 136 345 140Q362 144 373 151L373 2Q341 -8 314.5 -10.5Q288 -13 268 -13Z" transform="translate(2717.55 0)"/><path d="M265 -184Q225 -184 183 -177Q141 -170 103.5 -156.5Q66 -143 39 -121L78 22Q113 -11 162.5 -27Q212 -43 258 -43Q311 -43 345.5 -22.5Q380 -2 398.5 40.5Q417 83 420 146L425 233L401 233Q392 168 369.5 127Q347 86 312.5 66.5Q278 47 231 47Q173 47 134 76Q95 105 75.5 163.5Q56 222 56 309L56 528L218 528L218 349Q218 257 236.5 217.5Q255 178 295 178Q316 178 333 190Q350 202 362 224Q374 246 380.5 277.5Q387 309 387 348L387 528L548 528L548 140Q548 77 536.5 25Q525 -27 502.5 -66Q480 -105 446 -131.5Q412 -158 367 -171Q322 -184 265 -184Z" transform="translate(3269.45 0)"/><path d="M305 -14Q225 -14 163.5 17Q102 48 67 110Q32 172 32 265Q32 358 67 419.5Q102 481 164 511.5Q226 542 306 542Q386 542 448 511Q510 480 545 418.5Q580 357 580 264Q580 169 544 107Q508 45 445.5 15.5Q383 -14 305 -14ZM310 103Q346 103 370 119.5Q394 136 406 170Q418 204 418 254Q418 307 405 343.5Q392 380 366.5 399.5Q341 419 301 419Q267 419 242.5 402.5Q218 386 206 352Q194 318 194 267Q194 185 224.5 144Q255 103 310 103Z" transform="translate(3827.7 0)"/><path d="M243 -14Q149 -14 101.5 49.5Q54 113 54 243L54 528L216 528L216 264Q216 190 238 153.5Q260 117 305 117Q332 117 351.5 130.5Q371 144 384.5 168.5Q398 193 404.5 225Q411 257 411 295L411 528L572 528L572 214L572 0L444 0L441 163L421 163Q406 101 383.5 61.5Q361 22 327 4Q293 -14 243 -14Z" transform="translate(4396.6 0)"/><path d="M62 0L62 245L62 528L194 528L197 349L217 349Q224 419 243.5 460.5Q263 502 299.5 521Q336 540 390 540Q398 540 408 539.5Q418 539 431 537L425 365Q409 373 390.5 375.5Q372 378 358 378Q319 378 290.5 363Q262 348 245.5 317Q229 286 224 239L224 0Z" transform="translate(4968.25 0)"/><path d="M278 -14Q225 -14 182 -4.5Q139 5 107 23Q75 41 54.5 66.5Q34 92 26 123L146 176Q153 159 170.5 141.5Q188 124 217.5 113Q247 102 289 102Q329 102 351.5 113.5Q374 125 374 147Q374 163 361.5 172.5Q349 182 324 189.5Q299 197 262 204Q224 212 185 222.5Q146 233 112 251.5Q78 270 57.5 300.5Q37 331 37 378Q37 427 63 463.5Q89 500 140.5 521Q192 542 266 542Q332 542 382 525Q432 508 465.5 476.5Q499 445 512 401L383 355Q378 377 362.5 393Q347 409 323.5 417.5Q300 426 268 426Q229 426 207.5 414Q186 402 186 382Q186 366 200.5 355.5Q215 345 242 338Q269 331 306 323Q345 315 383.5 304.5Q422 294 453.5 276.5Q485 259 503.5 230.5Q522 202 522 157Q522 104 494 65.5Q466 27 411.5 6.5Q357 -14 278 -14Z" transform="translate(5351.2 0)"/><path d="M125 -13Q73 -13 47.5 9Q22 31 22 77Q22 124 47.5 146Q73 168 125 168Q178 168 204 146Q230 124 230 77Q230 -13 125 -13Z" transform="translate(5863.2 0)"/></g><g fill="#A7A59B" transform="translate(72 393) scale(0.022 -0.022)"><path d="M75 0L75 700L135 700L135 258L365 500L443 500L258 304L465 0L388 0L217 261L135 174L135 0Z" transform="translate(0 0)"/><path d="M291 -12Q219 -12 163.5 21.5Q108 55 76.5 114Q45 173 45 250Q45 327 76 386Q107 445 161.5 478.5Q216 512 286 512Q357 512 406.5 477.5Q456 443 482 382.5Q508 322 508 243L104 243Q109 148 159.5 95.5Q210 43 291 43Q349 43 389.5 71.5Q430 100 453 145L503 114Q484 77 453.5 48.5Q423 20 382 4Q341 -12 291 -12ZM110 298L443 298Q440 346 420 381.5Q400 417 366 437Q332 457 286 457Q241 457 202 437Q163 417 138.5 381Q114 345 110 298Z" transform="translate(666.474349 0)"/><path d="M291 -12Q219 -12 163.5 21.5Q108 55 76.5 114Q45 173 45 250Q45 327 76 386Q107 445 161.5 478.5Q216 512 286 512Q357 512 406.5 477.5Q456 443 482 382.5Q508 322 508 243L104 243Q109 148 159.5 95.5Q210 43 291 43Q349 43 389.5 71.5Q430 100 453 145L503 114Q484 77 453.5 48.5Q423 20 382 4Q341 -12 291 -12ZM110 298L443 298Q440 346 420 381.5Q400 417 366 437Q332 457 286 457Q241 457 202 437Q163 417 138.5 381Q114 345 110 298Z" transform="translate(1396.548905 0)"/><path d="M80 -200L80 500L136 500L140 409Q169 457 214 484.5Q259 512 316 512Q382 512 433 478.5Q484 445 513 386Q542 327 542 250Q542 174 513 114.5Q484 55 433 21.5Q382 -12 316 -12Q259 -12 214 15.5Q169 43 140 91L140 -200ZM304 42Q356 42 396 68.5Q436 95 459 142Q482 189 482 250Q482 311 459.5 358Q437 405 397 431.5Q357 458 305 458Q257 458 219.5 431.5Q182 405 161 358Q140 311 140 250Q140 189 161 142Q182 95 219 68.5Q256 42 304 42Z" transform="translate(2126.62346 0)"/><path d="M79 0L79 500L139 500L139 0ZM110 630Q94 630 82 642Q70 654 70 670Q70 687 82 698.5Q94 710 110 710Q127 710 138.5 698.5Q150 687 150 670Q150 654 138.5 642Q127 630 110 630Z" transform="translate(2902.035733 0)"/><path d="M75 0L75 500L131 500L134 422Q159 466 200 489Q241 512 297 512Q355 512 399.5 488.5Q444 465 469.5 414Q495 363 494 279L494 0L434 0L434 256Q434 339 414.5 382Q395 425 361.5 440.5Q328 456 286 456Q215 456 175 403.5Q135 351 135 257L135 0Z" transform="translate(3323.922888 0)"/><path d="M271 -12Q205 -12 154 21.5Q103 55 74 114.5Q45 174 45 250Q45 327 74 386Q103 445 154 478.5Q205 512 271 512Q328 512 373.5 484.5Q419 457 447 409L447 700L507 700L507 0L450 0L447 91Q419 43 373.5 15.5Q328 -12 271 -12ZM283 42Q331 42 368 68.5Q405 95 426 142Q447 189 447 249L447 250Q447 311 426 358Q405 405 368 431.5Q331 458 282 458Q230 458 190 431.5Q150 405 127.5 358Q105 311 105 250Q105 189 128 142Q151 95 191 68.5Q231 42 283 42Z" transform="translate(4066.621861 0)"/><path d="M291 -12Q219 -12 163.5 21.5Q108 55 76.5 114Q45 173 45 250Q45 327 76 386Q107 445 161.5 478.5Q216 512 286 512Q357 512 406.5 477.5Q456 443 482 382.5Q508 322 508 243L104 243Q109 148 159.5 95.5Q210 43 291 43Q349 43 389.5 71.5Q430 100 453 145L503 114Q484 77 453.5 48.5Q423 20 382 4Q341 -12 291 -12ZM110 298L443 298Q440 346 420 381.5Q400 417 366 437Q332 457 286 457Q241 457 202 437Q163 417 138.5 381Q114 345 110 298Z" transform="translate(4836.747435 0)"/><path d="M10 0L194 259L23 500L95 500L227 307L358 500L430 500L261 258L442 0L369 0L227 210L84 0Z" transform="translate(5558.221001 0)"/></g><g fill="#62D66B" transform="translate(209.107897 393) scale(0.022 -0.022)"><path d="M96 -14Q77 -14 63.5 -0.5Q50 13 50 32Q50 51 63.5 64.5Q77 78 96 78Q115 78 128.5 64.5Q142 51 142 32Q142 13 128.5 -0.5Q115 -14 96 -14Z" transform="translate(0 0)"/><path d="M79 0L79 500L139 500L139 0ZM110 630Q94 630 82 642Q70 654 70 670Q70 687 82 698.5Q94 710 110 710Q127 710 138.5 698.5Q150 687 150 670Q150 654 138.5 642Q127 630 110 630Z" transform="translate(400.767946 0)"/><path d="M75 0L75 500L131 500L134 422Q159 466 200 489Q241 512 297 512Q355 512 399.5 488.5Q444 465 469.5 414Q495 363 494 279L494 0L434 0L434 256Q434 339 414.5 382Q395 425 361.5 440.5Q328 456 286 456Q215 456 175 403.5Q135 351 135 257L135 0Z" transform="translate(822.655101 0)"/><path d="M266 -212Q221 -212 183 -202Q145 -192 119 -180.5Q93 -169 83 -164L105 -114Q117 -121 141.5 -131.5Q166 -142 198.5 -149.5Q231 -157 266 -157Q318 -157 359 -136Q400 -115 423.5 -70Q447 -25 447 46L447 101Q419 54 373.5 27Q328 0 271 0Q205 0 154 33Q103 66 74 124.5Q45 183 45 258Q45 333 74 390Q103 447 154 479.5Q205 512 271 512Q328 512 373.5 486Q419 460 447 413L447 500L507 500L507 46Q507 -41 474.5 -98.5Q442 -156 387 -184Q332 -212 266 -212ZM283 53Q331 53 368 79.5Q405 106 426 152Q447 198 447 258Q447 317 426 362.5Q405 408 368 434Q331 460 282 460Q230 460 190 434Q150 408 127.5 362.5Q105 317 105 258Q105 198 128 152Q151 106 191 79.5Q231 53 283 53Z" transform="translate(1565.354074 0)"/></g>
</svg>
